<mxfile host="app.diagrams.net" modified="2023-10-30T06:16:32.400Z" agent="Mozilla/5.0 (X11; Ubuntu; Linux x86_64; rv:109.0) Gecko/20100101 Firefox/118.0" etag="JCdOSZqhz8cKTKB1Arr_" version="22.0.8" type="github">
  <diagram name="Page-1" id="5tL5eRP8doZtgcWUYe8V">
    <mxGraphModel dx="2720" dy="1730" grid="1" gridSize="10" guides="1" tooltips="1" connect="1" arrows="1" fold="1" page="1" pageScale="1" pageWidth="850" pageHeight="1100" math="0" shadow="0">
      <root>
        <mxCell id="0" />
        <mxCell id="1" parent="0" />
        <mxCell id="SNq8UdCW0rfsHeAwv4oA-1" value="" style="shape=table;childLayout=tableLayout;startSize=0;fillColor=none;collapsible=0;recursiveResize=0;expand=0;" vertex="1" parent="1">
          <mxGeometry x="520" y="30" width="720" height="240" as="geometry" />
        </mxCell>
        <mxCell id="SNq8UdCW0rfsHeAwv4oA-2" value="" style="shape=tableRow;horizontal=0;swimlaneHead=0;swimlaneBody=0;top=0;left=0;strokeColor=inherit;bottom=0;right=0;dropTarget=0;fontStyle=0;fillColor=none;points=[[0,0.5],[1,0.5]];portConstraint=eastwest;startSize=40;collapsible=0;recursiveResize=0;expand=0;" vertex="1" parent="SNq8UdCW0rfsHeAwv4oA-1">
          <mxGeometry width="720" height="120" as="geometry" />
        </mxCell>
        <mxCell id="SNq8UdCW0rfsHeAwv4oA-3" value="" style="swimlane;swimlaneHead=0;swimlaneBody=0;fontStyle=0;strokeColor=inherit;connectable=0;fillColor=none;startSize=40;collapsible=0;recursiveResize=0;expand=0;" vertex="1" parent="SNq8UdCW0rfsHeAwv4oA-2">
          <mxGeometry x="40" width="113" height="120" as="geometry">
            <mxRectangle width="113" height="120" as="alternateBounds" />
          </mxGeometry>
        </mxCell>
        <mxCell id="SNq8UdCW0rfsHeAwv4oA-4" value="" style="swimlane;swimlaneHead=0;swimlaneBody=0;fontStyle=0;strokeColor=inherit;connectable=0;fillColor=none;startSize=40;collapsible=0;recursiveResize=0;expand=0;" vertex="1" parent="SNq8UdCW0rfsHeAwv4oA-2">
          <mxGeometry x="153" width="114" height="120" as="geometry">
            <mxRectangle width="114" height="120" as="alternateBounds" />
          </mxGeometry>
        </mxCell>
        <mxCell id="SNq8UdCW0rfsHeAwv4oA-5" value="" style="swimlane;swimlaneHead=0;swimlaneBody=0;fontStyle=0;strokeColor=inherit;connectable=0;fillColor=none;startSize=40;collapsible=0;recursiveResize=0;expand=0;" vertex="1" parent="SNq8UdCW0rfsHeAwv4oA-2">
          <mxGeometry x="267" width="113" height="120" as="geometry">
            <mxRectangle width="113" height="120" as="alternateBounds" />
          </mxGeometry>
        </mxCell>
        <mxCell id="SNq8UdCW0rfsHeAwv4oA-6" value="" style="swimlane;swimlaneHead=0;swimlaneBody=0;fontStyle=0;strokeColor=inherit;connectable=0;fillColor=none;startSize=40;collapsible=0;recursiveResize=0;expand=0;" vertex="1" parent="SNq8UdCW0rfsHeAwv4oA-2">
          <mxGeometry x="380" width="113" height="120" as="geometry">
            <mxRectangle width="113" height="120" as="alternateBounds" />
          </mxGeometry>
        </mxCell>
        <mxCell id="SNq8UdCW0rfsHeAwv4oA-7" value="" style="swimlane;swimlaneHead=0;swimlaneBody=0;fontStyle=0;strokeColor=inherit;connectable=0;fillColor=none;startSize=40;collapsible=0;recursiveResize=0;expand=0;" vertex="1" parent="SNq8UdCW0rfsHeAwv4oA-2">
          <mxGeometry x="493" width="114" height="120" as="geometry">
            <mxRectangle width="114" height="120" as="alternateBounds" />
          </mxGeometry>
        </mxCell>
        <mxCell id="SNq8UdCW0rfsHeAwv4oA-8" value="" style="swimlane;swimlaneHead=0;swimlaneBody=0;fontStyle=0;strokeColor=inherit;connectable=0;fillColor=none;startSize=40;collapsible=0;recursiveResize=0;expand=0;" vertex="1" parent="SNq8UdCW0rfsHeAwv4oA-2">
          <mxGeometry x="607" width="113" height="120" as="geometry">
            <mxRectangle width="113" height="120" as="alternateBounds" />
          </mxGeometry>
        </mxCell>
        <mxCell id="SNq8UdCW0rfsHeAwv4oA-9" value="" style="shape=tableRow;horizontal=0;swimlaneHead=0;swimlaneBody=0;top=0;left=0;strokeColor=inherit;bottom=0;right=0;dropTarget=0;fontStyle=0;fillColor=none;points=[[0,0.5],[1,0.5]];portConstraint=eastwest;startSize=40;collapsible=0;recursiveResize=0;expand=0;" vertex="1" parent="SNq8UdCW0rfsHeAwv4oA-1">
          <mxGeometry y="120" width="720" height="120" as="geometry" />
        </mxCell>
        <mxCell id="SNq8UdCW0rfsHeAwv4oA-10" value="" style="swimlane;swimlaneHead=0;swimlaneBody=0;fontStyle=0;connectable=0;strokeColor=inherit;fillColor=none;startSize=0;collapsible=0;recursiveResize=0;expand=0;" vertex="1" parent="SNq8UdCW0rfsHeAwv4oA-9">
          <mxGeometry x="40" width="113" height="120" as="geometry">
            <mxRectangle width="113" height="120" as="alternateBounds" />
          </mxGeometry>
        </mxCell>
        <mxCell id="SNq8UdCW0rfsHeAwv4oA-11" value="" style="swimlane;swimlaneHead=0;swimlaneBody=0;fontStyle=0;connectable=0;strokeColor=inherit;fillColor=none;startSize=0;collapsible=0;recursiveResize=0;expand=0;" vertex="1" parent="SNq8UdCW0rfsHeAwv4oA-9">
          <mxGeometry x="153" width="114" height="120" as="geometry">
            <mxRectangle width="114" height="120" as="alternateBounds" />
          </mxGeometry>
        </mxCell>
        <mxCell id="SNq8UdCW0rfsHeAwv4oA-12" value="" style="swimlane;swimlaneHead=0;swimlaneBody=0;fontStyle=0;connectable=0;strokeColor=inherit;fillColor=none;startSize=0;collapsible=0;recursiveResize=0;expand=0;" vertex="1" parent="SNq8UdCW0rfsHeAwv4oA-9">
          <mxGeometry x="267" width="113" height="120" as="geometry">
            <mxRectangle width="113" height="120" as="alternateBounds" />
          </mxGeometry>
        </mxCell>
        <mxCell id="SNq8UdCW0rfsHeAwv4oA-13" value="" style="swimlane;swimlaneHead=0;swimlaneBody=0;fontStyle=0;connectable=0;strokeColor=inherit;fillColor=none;startSize=0;collapsible=0;recursiveResize=0;expand=0;" vertex="1" parent="SNq8UdCW0rfsHeAwv4oA-9">
          <mxGeometry x="380" width="113" height="120" as="geometry">
            <mxRectangle width="113" height="120" as="alternateBounds" />
          </mxGeometry>
        </mxCell>
        <mxCell id="SNq8UdCW0rfsHeAwv4oA-14" value="" style="swimlane;swimlaneHead=0;swimlaneBody=0;fontStyle=0;connectable=0;strokeColor=inherit;fillColor=none;startSize=0;collapsible=0;recursiveResize=0;expand=0;" vertex="1" parent="SNq8UdCW0rfsHeAwv4oA-9">
          <mxGeometry x="493" width="114" height="120" as="geometry">
            <mxRectangle width="114" height="120" as="alternateBounds" />
          </mxGeometry>
        </mxCell>
        <mxCell id="SNq8UdCW0rfsHeAwv4oA-15" value="" style="swimlane;swimlaneHead=0;swimlaneBody=0;fontStyle=0;connectable=0;strokeColor=inherit;fillColor=none;startSize=0;collapsible=0;recursiveResize=0;expand=0;" vertex="1" parent="SNq8UdCW0rfsHeAwv4oA-9">
          <mxGeometry x="607" width="113" height="120" as="geometry">
            <mxRectangle width="113" height="120" as="alternateBounds" />
          </mxGeometry>
        </mxCell>
        <mxCell id="SNq8UdCW0rfsHeAwv4oA-16" value="" style="shape=table;childLayout=tableLayout;startSize=0;fillColor=none;collapsible=0;recursiveResize=0;expand=0;" vertex="1" parent="1">
          <mxGeometry x="1330" y="30" width="720" height="240" as="geometry" />
        </mxCell>
        <mxCell id="SNq8UdCW0rfsHeAwv4oA-17" value="" style="shape=tableRow;horizontal=0;swimlaneHead=0;swimlaneBody=0;top=0;left=0;strokeColor=inherit;bottom=0;right=0;dropTarget=0;fontStyle=0;fillColor=none;points=[[0,0.5],[1,0.5]];portConstraint=eastwest;startSize=40;collapsible=0;recursiveResize=0;expand=0;" vertex="1" parent="SNq8UdCW0rfsHeAwv4oA-16">
          <mxGeometry width="720" height="120" as="geometry" />
        </mxCell>
        <mxCell id="SNq8UdCW0rfsHeAwv4oA-18" value="" style="swimlane;swimlaneHead=0;swimlaneBody=0;fontStyle=0;strokeColor=inherit;connectable=0;fillColor=none;startSize=30;collapsible=0;recursiveResize=0;expand=0;" vertex="1" parent="SNq8UdCW0rfsHeAwv4oA-17">
          <mxGeometry x="40" width="113" height="120" as="geometry">
            <mxRectangle width="113" height="120" as="alternateBounds" />
          </mxGeometry>
        </mxCell>
        <mxCell id="SNq8UdCW0rfsHeAwv4oA-19" value="" style="swimlane;swimlaneHead=0;swimlaneBody=0;fontStyle=0;strokeColor=inherit;connectable=0;fillColor=none;startSize=30;collapsible=0;recursiveResize=0;expand=0;" vertex="1" parent="SNq8UdCW0rfsHeAwv4oA-17">
          <mxGeometry x="153" width="114" height="120" as="geometry">
            <mxRectangle width="114" height="120" as="alternateBounds" />
          </mxGeometry>
        </mxCell>
        <mxCell id="SNq8UdCW0rfsHeAwv4oA-20" value="" style="swimlane;swimlaneHead=0;swimlaneBody=0;fontStyle=0;strokeColor=inherit;connectable=0;fillColor=none;startSize=30;collapsible=0;recursiveResize=0;expand=0;" vertex="1" parent="SNq8UdCW0rfsHeAwv4oA-17">
          <mxGeometry x="267" width="113" height="120" as="geometry">
            <mxRectangle width="113" height="120" as="alternateBounds" />
          </mxGeometry>
        </mxCell>
        <mxCell id="SNq8UdCW0rfsHeAwv4oA-21" value="" style="swimlane;swimlaneHead=0;swimlaneBody=0;fontStyle=0;strokeColor=inherit;connectable=0;fillColor=none;startSize=30;collapsible=0;recursiveResize=0;expand=0;" vertex="1" parent="SNq8UdCW0rfsHeAwv4oA-17">
          <mxGeometry x="380" width="113" height="120" as="geometry">
            <mxRectangle width="113" height="120" as="alternateBounds" />
          </mxGeometry>
        </mxCell>
        <mxCell id="SNq8UdCW0rfsHeAwv4oA-22" value="" style="swimlane;swimlaneHead=0;swimlaneBody=0;fontStyle=0;strokeColor=inherit;connectable=0;fillColor=none;startSize=30;collapsible=0;recursiveResize=0;expand=0;" vertex="1" parent="SNq8UdCW0rfsHeAwv4oA-17">
          <mxGeometry x="493" width="114" height="120" as="geometry">
            <mxRectangle width="114" height="120" as="alternateBounds" />
          </mxGeometry>
        </mxCell>
        <mxCell id="SNq8UdCW0rfsHeAwv4oA-23" value="" style="swimlane;swimlaneHead=0;swimlaneBody=0;fontStyle=0;strokeColor=inherit;connectable=0;fillColor=none;startSize=30;collapsible=0;recursiveResize=0;expand=0;" vertex="1" parent="SNq8UdCW0rfsHeAwv4oA-17">
          <mxGeometry x="607" width="113" height="120" as="geometry">
            <mxRectangle width="113" height="120" as="alternateBounds" />
          </mxGeometry>
        </mxCell>
        <mxCell id="SNq8UdCW0rfsHeAwv4oA-24" value="" style="shape=tableRow;horizontal=0;swimlaneHead=0;swimlaneBody=0;top=0;left=0;strokeColor=inherit;bottom=0;right=0;dropTarget=0;fontStyle=0;fillColor=none;points=[[0,0.5],[1,0.5]];portConstraint=eastwest;startSize=40;collapsible=0;recursiveResize=0;expand=0;" vertex="1" parent="SNq8UdCW0rfsHeAwv4oA-16">
          <mxGeometry y="120" width="720" height="120" as="geometry" />
        </mxCell>
        <mxCell id="SNq8UdCW0rfsHeAwv4oA-25" value="" style="swimlane;swimlaneHead=0;swimlaneBody=0;fontStyle=0;connectable=0;strokeColor=inherit;fillColor=none;startSize=0;collapsible=0;recursiveResize=0;expand=0;" vertex="1" parent="SNq8UdCW0rfsHeAwv4oA-24">
          <mxGeometry x="40" width="113" height="120" as="geometry">
            <mxRectangle width="113" height="120" as="alternateBounds" />
          </mxGeometry>
        </mxCell>
        <mxCell id="SNq8UdCW0rfsHeAwv4oA-26" value="" style="swimlane;swimlaneHead=0;swimlaneBody=0;fontStyle=0;connectable=0;strokeColor=inherit;fillColor=none;startSize=0;collapsible=0;recursiveResize=0;expand=0;" vertex="1" parent="SNq8UdCW0rfsHeAwv4oA-24">
          <mxGeometry x="153" width="114" height="120" as="geometry">
            <mxRectangle width="114" height="120" as="alternateBounds" />
          </mxGeometry>
        </mxCell>
        <mxCell id="SNq8UdCW0rfsHeAwv4oA-27" value="" style="swimlane;swimlaneHead=0;swimlaneBody=0;fontStyle=0;connectable=0;strokeColor=inherit;fillColor=none;startSize=0;collapsible=0;recursiveResize=0;expand=0;" vertex="1" parent="SNq8UdCW0rfsHeAwv4oA-24">
          <mxGeometry x="267" width="113" height="120" as="geometry">
            <mxRectangle width="113" height="120" as="alternateBounds" />
          </mxGeometry>
        </mxCell>
        <mxCell id="SNq8UdCW0rfsHeAwv4oA-28" value="" style="swimlane;swimlaneHead=0;swimlaneBody=0;fontStyle=0;connectable=0;strokeColor=inherit;fillColor=none;startSize=0;collapsible=0;recursiveResize=0;expand=0;" vertex="1" parent="SNq8UdCW0rfsHeAwv4oA-24">
          <mxGeometry x="380" width="113" height="120" as="geometry">
            <mxRectangle width="113" height="120" as="alternateBounds" />
          </mxGeometry>
        </mxCell>
        <mxCell id="SNq8UdCW0rfsHeAwv4oA-29" value="" style="swimlane;swimlaneHead=0;swimlaneBody=0;fontStyle=0;connectable=0;strokeColor=inherit;fillColor=none;startSize=0;collapsible=0;recursiveResize=0;expand=0;" vertex="1" parent="SNq8UdCW0rfsHeAwv4oA-24">
          <mxGeometry x="493" width="114" height="120" as="geometry">
            <mxRectangle width="114" height="120" as="alternateBounds" />
          </mxGeometry>
        </mxCell>
        <mxCell id="SNq8UdCW0rfsHeAwv4oA-30" value="" style="swimlane;swimlaneHead=0;swimlaneBody=0;fontStyle=0;connectable=0;strokeColor=inherit;fillColor=none;startSize=0;collapsible=0;recursiveResize=0;expand=0;" vertex="1" parent="SNq8UdCW0rfsHeAwv4oA-24">
          <mxGeometry x="607" width="113" height="120" as="geometry">
            <mxRectangle width="113" height="120" as="alternateBounds" />
          </mxGeometry>
        </mxCell>
      </root>
    </mxGraphModel>
  </diagram>
</mxfile>
